<svg width="40" height="40" viewBox="0 0 40 40" fill="none" xmlns="http://www.w3.org/2000/svg">
<path fill-rule="evenodd" clip-rule="evenodd" d="M19.9999 0C31.0382 0 40 8.96158 40 19.9999C40 31.0382 31.0382 40 19.9999 40C8.96158 40 0 31.0382 0 19.9999C0 8.96158 8.96158 0 19.9999 0ZM19.9999 1.5C30.2104 1.5 38.5 9.78958 38.5 19.9999C38.5 30.2104 30.2104 38.5 19.9999 38.5C9.78958 38.5 1.5 30.2104 1.5 19.9999C1.5 9.78958 9.78958 1.5 19.9999 1.5Z" fill="black"/>
<path fill-rule="evenodd" clip-rule="evenodd" d="M20.635 19.6002C20.8555 19.9508 20.7499 20.4138 20.3992 20.6343L6.51163 29.364C6.16095 29.5844 5.69796 29.4789 5.47752 29.1282C5.25708 28.7775 5.36266 28.3145 5.71335 28.0941L19.6009 19.3643C19.9516 19.1439 20.4146 19.2495 20.635 19.6002Z" fill="black"/>
<path fill-rule="evenodd" clip-rule="evenodd" d="M19.38 19.6056C19.5974 19.2531 20.0595 19.1435 20.4121 19.3609L36.6236 29.3581C36.9761 29.5755 37.0857 30.0376 36.8683 30.3901C36.6508 30.7427 36.1888 30.8523 35.8362 30.6349L19.6247 20.6377C19.2722 20.4203 19.1626 19.9582 19.38 19.6056Z" fill="black"/>
<path fill-rule="evenodd" clip-rule="evenodd" d="M20.0184 0.100018C20.4326 0.100018 20.7684 0.435804 20.7684 0.850018V19.9981C20.7684 20.4124 20.4326 20.7481 20.0184 20.7481C19.6042 20.7481 19.2684 20.4124 19.2684 19.9981V0.850018C19.2684 0.435804 19.6042 0.100018 20.0184 0.100018Z" fill="black"/>
<path fill-rule="evenodd" clip-rule="evenodd" d="M20.5388 13.3489C21.1277 13.0009 21.8784 12.5221 22.6438 12.6923C23.5541 12.8946 24.38 13.3842 25.2166 13.8455C26.1965 14.3862 27.1887 14.8926 28.2814 15.0486C29.5301 15.2271 30.6159 14.8357 31.6668 14.2957C32.5339 13.85 33.3727 13.2942 34.3078 13.0391C35.6791 12.6651 36.1455 13.1082 37.4527 13.3695C37.8586 13.4509 38.2541 13.1871 38.3352 12.7813C38.4163 12.3755 38.1528 11.9799 37.7467 11.8988C36.1567 11.5808 35.581 11.1371 33.913 11.5921C32.8783 11.8741 31.9407 12.4686 30.9814 12.9615C30.2057 13.3599 29.4151 13.6955 28.4935 13.5637C27.5796 13.4331 26.7605 12.9841 25.9412 12.5322C24.9783 12.0011 24.0171 11.4608 22.9692 11.228C21.824 10.9734 20.6568 11.5367 19.7756 12.0577C19.4192 12.2682 19.3008 12.7285 19.5116 13.0849C19.722 13.4413 20.1824 13.5596 20.5388 13.3489Z" fill="black"/>
<path fill-rule="evenodd" clip-rule="evenodd" d="M19.7376 18.1122L19.9923 17.7791C20.2611 17.4858 20.5527 17.1918 20.8889 16.978C21.7512 16.4291 23.0624 16.359 24.0452 16.4747C25.5852 16.6559 26.941 17.3582 28.3164 17.9757C29.4977 18.5061 30.6958 18.9746 32.1053 18.7866C32.8181 18.6916 33.4306 18.3813 34.0279 18.0371C34.7347 17.6298 35.4211 17.1731 36.1745 16.8501C37.0094 16.4922 38.0114 16.4342 38.9225 16.4342C39.3365 16.4342 39.6725 16.7702 39.6725 17.1842C39.6725 17.5979 39.3365 17.9342 38.9225 17.9342C38.2087 17.9342 37.4196 17.9486 36.7654 18.2289C36.0663 18.5286 35.4329 18.9587 34.777 19.3367C34.0114 19.7781 33.2172 20.1518 32.3035 20.2737C30.5959 20.5012 29.1334 19.9866 27.702 19.3439C26.4646 18.7886 25.2555 18.1276 23.87 17.9644C23.1956 17.8852 22.286 17.8667 21.6941 18.2433C21.4767 18.3818 21.2945 18.5783 21.12 18.7689C21.0413 18.8723 20.8148 19.1668 20.7452 19.228C20.5018 19.4416 20.2625 19.4313 20.1567 19.4202C19.7451 19.3778 19.4451 19.0091 19.4876 18.5973C19.5077 18.4024 19.6011 18.2325 19.7376 18.1122Z" fill="black"/>
<path fill-rule="evenodd" clip-rule="evenodd" d="M28.1124 24.6012C28.022 24.7505 27.8794 24.8686 27.7001 24.9257C27.3264 25.045 27.0958 24.8842 26.9696 24.7723C26.8616 24.6766 26.5068 24.2931 26.85 23.7783C26.9451 23.6352 27.7827 22.7916 27.9615 22.6455C29.0187 21.7805 29.8464 21.5084 31.2862 21.5885C32.4307 21.6519 33.4865 22.05 34.5367 22.4436C35.4317 22.7794 36.3209 23.1156 37.2874 23.1156C37.4355 23.1156 38.0664 22.8142 38.2395 22.73C38.3487 22.4513 38.6203 22.2536 38.9376 22.2536C39.3516 22.2536 39.6876 22.5898 39.6876 23.0036C39.6876 23.3172 39.4951 23.708 39.0595 23.9993C38.5255 24.3562 37.5838 24.6156 37.2874 24.6156C36.1385 24.6156 35.0739 24.2472 34.0099 23.8481C33.1013 23.5073 32.1934 23.1411 31.2029 23.0861C30.2117 23.0309 29.6393 23.2109 28.9114 23.8064C28.8017 23.8961 28.236 24.4748 28.1124 24.6012ZM27.7947 23.5344C27.6773 23.4732 27.5105 23.4248 27.2878 23.4845C27.463 23.4396 27.6413 23.4612 27.7947 23.5344Z" fill="black"/>
<path fill-rule="evenodd" clip-rule="evenodd" d="M26.0779 3.95402C28.0097 3.95402 29.5781 5.52241 29.5781 7.45393C29.5781 9.38568 28.0097 10.9541 26.0779 10.9541C24.1462 10.9541 22.578 9.38568 22.578 7.45393C22.578 5.52241 24.1462 3.95402 26.0779 3.95402ZM26.0779 5.45401C27.1819 5.45401 28.0781 6.35017 28.0781 7.45393C28.0781 8.55793 27.1819 9.45408 26.0779 9.45408C24.9742 9.45408 24.078 8.55793 24.078 7.45393C24.078 6.35017 24.9742 5.45401 26.0779 5.45401Z" fill="black"/>
<path fill-rule="evenodd" clip-rule="evenodd" d="M13.9899 19.6063C13.735 20.291 13.3366 20.927 12.7935 21.4697C10.8397 23.4216 7.67863 23.4989 5.38663 21.7737C5.64151 21.089 6.03991 20.453 6.58303 19.9104C8.53686 17.9582 11.6979 17.8812 13.9899 19.6063ZM11.9489 20.1734C10.4614 19.601 8.77566 19.8401 7.6431 20.9717C7.56726 21.0475 7.49551 21.1257 7.42759 21.2066C8.9151 21.779 10.6009 21.54 11.7334 20.4084C11.8093 20.3325 11.881 20.2543 11.9489 20.1734Z" fill="black"/>
<path fill-rule="evenodd" clip-rule="evenodd" d="M12.9416 3.82986C13.9741 4.20737 14.9388 4.79609 15.7695 5.59793C18.7577 8.48321 18.9881 13.1435 16.4933 16.5193C16.1727 16.402 15.8585 16.2645 15.5528 16.1063C15.211 15.9297 11.9621 12.3969 11.762 11.8713C10.7722 9.27376 11.1694 6.22769 12.9416 3.82986ZM13.5113 5.75153C12.6241 7.49009 12.4899 9.48448 13.129 11.2418C13.5886 11.9015 15.1296 13.6031 15.9876 14.4693C17.2488 11.8677 16.8492 8.72561 14.7276 6.67721C14.3528 6.31529 13.9443 6.00665 13.5113 5.75153Z" fill="black"/>
<path fill-rule="evenodd" clip-rule="evenodd" d="M6.11249 10.9845C8.26048 10.1123 10.7846 10.2242 12.916 11.5048C14.8528 12.6686 16.0686 14.5591 16.4236 16.607C14.2756 17.4794 11.7518 17.3673 9.62032 16.0866C7.68328 14.9229 6.46745 13.0324 6.11249 10.9845ZM14.5703 15.5834C14.099 14.4604 13.2748 13.4704 12.1434 12.7905C10.8426 12.0091 9.35992 11.7703 7.96576 12.0081C8.43712 13.1311 9.26128 14.1211 10.3929 14.801C11.6934 15.5824 13.1762 15.8212 14.5703 15.5834Z" fill="black"/>
<path fill-rule="evenodd" clip-rule="evenodd" d="M3.23127 17.6266C3.64495 17.6477 3.96327 18 3.94225 18.4137C3.65095 24.1472 6.34117 29.8745 11.4992 33.2143C16.5563 36.489 22.7369 36.66 27.7948 34.2038C28.1674 34.0229 28.6162 34.1783 28.7971 34.5509C28.978 34.9235 28.8227 35.3722 28.4501 35.5532C22.9403 38.2287 16.2003 38.0455 10.6839 34.4734C5.05741 30.8302 2.12685 24.5835 2.44418 18.3376C2.4652 17.9239 2.81759 17.6056 3.23127 17.6266Z" fill="black"/>
<path fill-rule="evenodd" clip-rule="evenodd" d="M19.6911 19.3245C20.0637 19.1437 20.5124 19.2993 20.6932 19.6719L25.8949 30.3949C26.0757 30.7676 25.9202 31.2162 25.5475 31.397C25.1748 31.5778 24.7261 31.4223 24.5454 31.0496L19.3436 20.3266C19.1628 19.954 19.3184 19.5053 19.6911 19.3245Z" fill="black"/>
<path fill-rule="evenodd" clip-rule="evenodd" d="M20.2544 19.2989C20.6412 19.4471 20.8347 19.8808 20.6865 20.2676L15.9434 32.6492C15.7952 33.036 15.3615 33.2294 14.9747 33.0812C14.5879 32.9331 14.3945 32.4994 14.5426 32.1126L19.2858 19.731C19.4339 19.3442 19.8676 19.1508 20.2544 19.2989Z" fill="black"/>
<path fill-rule="evenodd" clip-rule="evenodd" d="M19.2397 30.1164C19.1377 30.8928 19.4 31.7326 19.4 32.4531C19.4 32.8671 19.7362 33.2031 20.15 33.2031C20.564 33.2031 20.9 32.8671 20.9 32.4531C20.9 31.7921 20.6334 31.0239 20.7267 30.3118C20.7807 29.9014 20.4913 29.5243 20.0809 29.4706C19.6705 29.4166 19.2934 29.706 19.2397 30.1164Z" fill="black"/>
<path fill-rule="evenodd" clip-rule="evenodd" d="M27.5775 29.04L27.5736 29.0362C27.5038 28.967 27.0632 28.5271 26.9789 28.4299C26.6679 28.0702 26.8109 27.7157 26.8275 27.6694C26.9669 27.2796 27.3965 27.0763 27.7863 27.216C27.9236 27.265 28.0376 27.3499 28.1216 27.4567L28.6301 27.9713L28.6383 27.9792C29.2402 28.5814 28.3784 29.2116 28.3743 29.213C28.3731 29.2135 27.9545 29.4094 27.5768 29.039L27.5566 29.0179L27.5775 29.04Z" fill="black"/>
<path fill-rule="evenodd" clip-rule="evenodd" d="M11.7567 28.0368C11.8176 27.9813 12.1481 27.6794 12.1916 27.6252C12.45 27.3019 12.9224 27.2496 13.2456 27.508C13.5689 27.7668 13.6215 28.2391 13.3628 28.5624C13.2912 28.6516 12.806 29.116 12.7052 29.1998C12.1071 29.6964 11.5678 29.0241 11.5397 28.968C11.3765 28.6406 11.4754 28.2504 11.7567 28.0368ZM12.2064 27.8834C12.4834 27.882 12.7505 28.0346 12.8823 28.2988C12.7673 28.0684 12.5686 27.8772 12.2064 27.8834Z" fill="black"/>
</svg>
